<svg id="Layer_1" data-name="Layer 1" xmlns="http://www.w3.org/2000/svg" viewBox="0 0 2650 580"><defs><style>.cls-1{fill:#df5643;}.cls-2{fill:#df5742;}.cls-3{fill:#809dab;}.cls-4{fill:#275d97;}</style></defs><title>no slogan</title><path class="cls-1" d="M984.07,70.9q60,60,60,144.84t-60,144.85q-60,60-144.84,60t-144.84-60q-60-60-60-144.85t60-144.84q60-60,144.84-60T984.07,70.9ZM839.23,63.15q-63.29,0-107.94,44.65T686.63,215.74q0,63.3,44.78,108.07t107.82,44.78q63.28,0,107.94-44.78t44.66-108.07q0-63.28-44.66-107.94T839.23,63.15Z"/><path class="cls-1" d="M139.57,211Q97,196.72,70.65,170.34T44.26,104.92q0-38.26,27.39-65.79t66.42-27.52q38.52,0,66,27.27,15.51,15,26,47.78l-47,18.51q-8.52-23-15.51-30a40.69,40.69,0,0,0-29.52-12A40.72,40.72,0,0,0,108.3,75.28,40.13,40.13,0,0,0,96,104.92a40.53,40.53,0,0,0,12.26,29.77q13.76,13.51,38,24.77,47,15.25,79.8,48,36.78,36.27,36.78,88.05T226.25,384q-36.66,36.64-88.18,36.64-51.79,0-88.31-36.77-29.26-29.27-37-80.8L63,284.79q4.74,44.28,23.26,62.79,21.52,21.51,51.79,21.51t51.78-21.51q21.51-21.51,21.51-52,0-30.26-21.51-51.78Q169.33,223.26,139.57,211Z"/><path class="cls-2" d="M369.65,250.77v165.6H317.87V16.11h51.78V199H493.23V16.11H545V416.37H493.23V250.77Z"/><path class="cls-1" d="M1433,70.9q60,60,60,144.84t-60,144.85q-60,60-144.85,60t-144.84-60q-60-60-60-144.85t60-144.84q60-60,144.84-60T1433,70.9Zm-144.85-7.75q-63.29,0-107.94,44.65t-44.66,107.94q0,63.3,44.78,108.07t107.82,44.78q63.28,0,107.95-44.78t44.65-108.07q0-63.28-44.65-107.94T1288.14,63.15Z"/><path class="cls-1" d="M1675.94,67.9V416.37h-52V67.9h-93.31V16.11h238.66V67.9Z"/><path class="cls-1" d="M1875.13,16.11V416.37h-51.78V16.11Z"/><path class="cls-1" d="M2021.42,16.11l129.83,224.4,129.34-224.4h47.28V416.37h-51.79V127.19L2151.25,343.33,2025.92,127.19V416.37h-51.78V16.11Z"/><path class="cls-1" d="M2637.26,16.11V67.9H2473.41V190.23h163.85V242H2473.41V364.34h163.85v52H2421.62V16.11Z"/><path class="cls-3" d="M716.71,188c.83-.82,1.61-1.69,2.46-2.49,11.83-11.29,25.41-20.06,40-27.32a245.37,245.37,0,0,1,67.07-22c7.87-1.39,15.73-2.29,23.76-1.12a81.06,81.06,0,0,1,41.59,18.51c2,1.67,3.85,3.46,5.78,5.19-1.06-3.22-2.28-6.33-3.63-9.38A160.91,160.91,0,0,0,847.58,89a3.24,3.24,0,0,0-1.74-.75,127.54,127.54,0,0,0-127.08,85.47c-1.87,5.39-3.25,11-4.85,16.43l.44.18C715.14,189.51,715.94,188.76,716.71,188Z"/><path class="cls-4" d="M728.06,278.49c14.39,25.09,34.82,43.5,61.44,54.93a115.35,115.35,0,0,0,21.35,6.87c-.4-.5-.57-.74-.77-1-9.66-9.84-17.18-21.22-23.63-33.3a258.8,258.8,0,0,1-26.51-77c-.84-4.73-1.9-9.54-1.84-14.31.25-20.85,7.53-39,21.7-54.41.39-.42.77-.85,1.15-1.28-.08-.11-.16-.21-.23-.32-3.45,1.58-6.93,3.08-10.33,4.74a159.38,159.38,0,0,0-57.92,47.63,3.89,3.89,0,0,0-.8,2.33c.24,6.18.24,12.4,1,18.53A122,122,0,0,0,728.06,278.49Z"/><path class="cls-4" d="M879,104a183,183,0,0,1,21.8,37.59A242,242,0,0,1,918.7,201.8c1.29,8.09,2.3,16.16,1.12,24.39a81.68,81.68,0,0,1-14.36,36.62c-2.6,3.62-5.58,6.95-8.42,10.46,0,0,0,0,.08,0l.71-.25A160.56,160.56,0,0,0,966,220.77a3.79,3.79,0,0,0,.71-2.06,121.75,121.75,0,0,0-1.66-24.42,128.14,128.14,0,0,0-92-101.77c-1.56-.44-3.14-.81-5.1-1.31l1.28,1.46C872.48,96.44,875.93,100.05,879,104Z"/><path class="cls-3" d="M930.92,269a178.69,178.69,0,0,1-82.74,27.77c-8.87.68-17.62.61-26.3-1.65-14.83-3.85-28.11-10.48-39.26-21.13-.3-.28-.64-.52-1.19-1a160.67,160.67,0,0,0,50,69.66,3.06,3.06,0,0,0,1.62.64,127.42,127.42,0,0,0,48.51-7.06,127.82,127.82,0,0,0,78.28-78.9c1.7-5,3-10.2,4.46-15.3l-.64-.38a7.68,7.68,0,0,1-.7,1A178.92,178.92,0,0,1,930.92,269Z"/><path class="cls-4" d="M1165.63,188.48c.82-.82,1.61-1.69,2.45-2.49,11.84-11.29,25.41-20.06,40-27.32a245.3,245.3,0,0,1,67.06-22c7.87-1.39,15.73-2.29,23.76-1.12a81.06,81.06,0,0,1,41.59,18.51c2,1.67,3.85,3.46,5.78,5.19-1.06-3.22-2.28-6.33-3.62-9.38a161,161,0,0,0-46.14-60.45,3.21,3.21,0,0,0-1.73-.75,127.54,127.54,0,0,0-127.09,85.47c-1.87,5.39-3.25,11-4.85,16.43l.45.18C1164.05,190,1164.85,189.26,1165.63,188.48Z"/><path class="cls-3" d="M1238.41,333.92a115.6,115.6,0,0,0,21.35,6.87c-.4-.5-.57-.74-.77-1-9.66-9.84-17.18-21.22-23.63-33.3a258.82,258.82,0,0,1-26.5-77c-.85-4.74-1.91-9.55-1.85-14.32a79.18,79.18,0,0,1,21.71-54.4c.39-.43.76-.86,1.14-1.29l-.23-.32c-3.44,1.58-6.93,3.08-10.33,4.74a159.38,159.38,0,0,0-57.92,47.63,4,4,0,0,0-.8,2.33c.24,6.18.24,12.4,1,18.53A121.8,121.8,0,0,0,1177,279C1191.36,304.08,1211.79,322.49,1238.41,333.92Z"/><path class="cls-3" d="M1327.87,104.49a182.59,182.59,0,0,1,21.8,37.59,241.62,241.62,0,0,1,17.94,60.22c1.29,8.09,2.3,16.16,1.12,24.39a81.57,81.57,0,0,1-14.36,36.62c-2.59,3.62-5.58,6.95-8.42,10.46,0,0,0,0,.08,0l.72-.25a160.59,160.59,0,0,0,68.19-52.27,3.79,3.79,0,0,0,.71-2.06,121,121,0,0,0-1.66-24.42A128.14,128.14,0,0,0,1322,93c-1.56-.44-3.14-.81-5.1-1.31l1.28,1.47C1321.4,96.94,1324.84,100.55,1327.87,104.49Z"/><path class="cls-4" d="M1379.83,269.51a178.69,178.69,0,0,1-82.74,27.77c-8.87.68-17.62.61-26.3-1.65-14.82-3.85-28.11-10.48-39.25-21.13-.3-.28-.65-.52-1.2-1A163.13,163.13,0,0,0,1246,305a161,161,0,0,0,34.38,38.23,3.06,3.06,0,0,0,1.62.64,127.2,127.2,0,0,0,48.51-7.06,127.82,127.82,0,0,0,78.28-78.9c1.7-5,3-10.2,4.46-15.3l-.64-.38a8.73,8.73,0,0,1-.69,1A179.34,179.34,0,0,1,1379.83,269.51Z"/><path class="cls-3" d="M1560.3,292.73a184.4,184.4,0,0,0-46.88-19.22c-1.22,2.5-2.49,5-3.81,7.45,8.49,5.45,16.77,11.28,23.93,16.28,10.71,7.48,20.77,15.67,27.59,27.09,6.67,11.17,6.6,22.48-1.57,32.54a106,106,0,0,1-19.44,18.72c-21,15.31-45,24.49-69.51,32.3q-4.9,1.56-10.34,3.2A940.74,940.74,0,0,1,1155,450.45l-14.81-.53-11.37.61L1178.27,477l-55.57,33.13c39.37-2.24,119.09-6.91,158-13.31,59.19-9.74,117.72-22.28,174.54-41.84,33.62-11.58,66.37-25.13,95.82-45.51,15.15-10.49,28.85-22.57,37.65-39.13,9.21-17.34,11.39-35,.23-52.43C1581.88,306.87,1571.48,299.23,1560.3,292.73Z"/><path class="cls-3" d="M985.85,452.33s-96-7.23-159.75-15.22c-43.32-5.43-86.3-12.66-128.35-24.66-28.67-8.19-56.67-18.08-81.9-34.43-9.17-5.95-17.59-12.8-23.78-22-6.61-9.81-7.52-20.1-1.37-30.25a78.33,78.33,0,0,1,12-15.17,154,154,0,0,1,18.49-15.69q-3.39-6.86-6.15-14c-15.51,6.63-30.31,14.6-42.86,26.4-15.28,14.34-20,31.47-13.73,51.49,5.42,17.44,17.08,30.39,30.74,41.7,21.5,17.79,46.13,30.33,71.77,40.84,72.54,29.74,148.34,47.09,225.83,56.89,39.36,5,99,13.57,99,13.57L969,569.14l150.48-90.5L967.81,399.8Z"/></svg>