<svg xmlns="http://www.w3.org/2000/svg" width="28.026" height="42.021" viewBox="0 0 28.026 42.021">
  <path id="Icon_ionic-ios-arrow-round-down" data-name="Icon ionic-ios-arrow-round-down" d="M38.736,34.673a1.907,1.907,0,0,0-2.686-.015l-8.889,8.86V9.758a1.9,1.9,0,0,0-3.795,0v33.76l-8.889-8.874a1.921,1.921,0,0,0-2.686.015,1.89,1.89,0,0,0,.015,2.671L23.922,49.356h0a2.131,2.131,0,0,0,.6.394,1.811,1.811,0,0,0,.73.146,1.9,1.9,0,0,0,1.328-.54L38.693,37.329A1.859,1.859,0,0,0,38.736,34.673Z" transform="translate(-11.247 -7.875)" fill="#e4e6e5"/>
</svg>
