<svg id="Layer_1" data-name="Layer 1" xmlns="http://www.w3.org/2000/svg" viewBox="0 0 2744.53 642.28"><defs><style>.cls-1{fill:#e25742;}.cls-2{fill:#83a0ae;}.cls-3{fill:#025d99;}.cls-4{fill:#809dab;}</style></defs><title>no slogan</title><path class="cls-1" d="M1031.34,102q60,60,60,144.84t-60,144.85q-60,60-144.85,60t-144.84-60q-60-60-60-144.85t60-144.84q60-60,144.84-60T1031.34,102ZM886.49,94.28q-63.29,0-107.94,44.66T733.9,246.88q0,63.3,44.78,108.07t107.81,44.78q63.3,0,108-44.78t44.65-108.07q0-63.28-44.65-107.94T886.49,94.28Z"/><path class="cls-1" d="M186.83,242.13q-42.53-14.26-68.92-40.65T91.52,136.06q0-38.28,27.39-65.79t66.42-27.52q38.52,0,66,27.27,15.51,15,26,47.78l-47,18.51q-8.51-23-15.51-30a42.43,42.43,0,0,0-59.29.13,40.13,40.13,0,0,0-12.26,29.64,40.53,40.53,0,0,0,12.26,29.77q13.75,13.5,38,24.77,47,15.26,79.8,48,36.76,36.27,36.77,88.05t-36.65,88.43q-36.64,36.66-88.18,36.65Q133.55,451.76,97,415q-29.26-29.26-37-80.8l50.28-18.26q4.75,44.28,23.27,62.79,21.51,21.51,51.78,21.51t51.78-21.51q21.52-21.53,21.52-52,0-30.26-21.52-51.78Q216.61,254.4,186.83,242.13Z"/><path class="cls-1" d="M416.91,281.9V447.51H365.13V47.25h51.78V230.12H540.5V47.25h51.78V447.51H540.5V281.9Z"/><path class="cls-1" d="M1480.25,102q60,60,60,144.84t-60,144.85q-60,60-144.84,60t-144.85-60q-60-60-60-144.85t60-144.84q60-60,144.85-60T1480.25,102Zm-144.84-7.76q-63.3,0-108,44.66t-44.65,107.94q0,63.3,44.78,108.07t107.82,44.78q63.28,0,107.94-44.78T1488,246.88q0-63.28-44.65-107.94T1335.41,94.28Z"/><path class="cls-1" d="M1723.2,99V447.51h-52V99h-93.31V47.25h238.65V99Z"/><path class="cls-1" d="M1922.39,47.25V447.51h-51.78V47.25Z"/><path class="cls-1" d="M2068.68,47.25l129.84,224.4,129.33-224.4h47.28V447.51h-51.78V158.33L2198.52,374.46,2073.19,158.33V447.51H2021.4V47.25Z"/><path class="cls-1" d="M2684.53,47.25V99H2520.67V221.37h163.86v51.78H2520.67V395.48h163.86v52H2468.89V47.25Z"/><path class="cls-2" d="M764,219.12c.82-.82,1.61-1.69,2.45-2.5,11.84-11.28,25.41-20.05,40-27.31a245.3,245.3,0,0,1,67.06-22c7.87-1.39,15.73-2.29,23.77-1.12a81,81,0,0,1,41.58,18.51c2,1.67,3.85,3.46,5.78,5.19-1.06-3.22-2.28-6.33-3.62-9.38a161,161,0,0,0-46.14-60.45,3.21,3.21,0,0,0-1.73-.75A127.57,127.57,0,0,0,766,204.81c-1.87,5.39-3.25,10.95-4.85,16.43l.45.18C762.4,220.65,763.2,219.9,764,219.12Z"/><path class="cls-3" d="M775.32,309.63c14.39,25.09,34.82,43.5,61.44,54.92a114.87,114.87,0,0,0,21.35,6.88c-.4-.5-.57-.74-.77-.95-9.66-9.84-17.18-21.23-23.63-33.31a258.62,258.62,0,0,1-26.5-77c-.85-4.73-1.91-9.55-1.85-14.31a79.25,79.25,0,0,1,21.71-54.41c.39-.42.76-.85,1.14-1.28l-.23-.32c-3.44,1.58-6.92,3.08-10.33,4.73a159.41,159.41,0,0,0-57.92,47.64,4,4,0,0,0-.8,2.32c.25,6.19.24,12.41,1,18.54A121.8,121.8,0,0,0,775.32,309.63Z"/><path class="cls-3" d="M926.22,135.12a182.93,182.93,0,0,1,21.8,37.6A241.2,241.2,0,0,1,966,232.94c1.29,8.08,2.3,16.16,1.12,24.38A81.56,81.56,0,0,1,952.72,294c-2.59,3.62-5.58,6.95-8.42,10.45,0,0,0,0,.08,0l.72-.25a160.61,160.61,0,0,0,68.19-52.27,3.81,3.81,0,0,0,.71-2.06,121,121,0,0,0-1.66-24.42,128.14,128.14,0,0,0-92-101.77c-1.56-.44-3.14-.81-5.1-1.31l1.28,1.46C919.75,127.57,923.19,131.19,926.22,135.12Z"/><path class="cls-2" d="M978.18,300.14a178.38,178.38,0,0,1-82.74,27.77c-8.87.69-17.62.62-26.3-1.64-14.82-3.85-28.11-10.48-39.25-21.13-.3-.28-.65-.52-1.2-1a162.56,162.56,0,0,0,15.65,31.43,160.64,160.64,0,0,0,34.39,38.24,2.9,2.9,0,0,0,1.61.63,127.19,127.19,0,0,0,48.51-7.05,127.88,127.88,0,0,0,78.28-78.9c1.7-5,3-10.2,4.46-15.31l-.64-.37a8.73,8.73,0,0,1-.69,1A179.28,179.28,0,0,1,978.18,300.14Z"/><path class="cls-3" d="M1212.89,219.62c.83-.82,1.61-1.69,2.46-2.5,11.83-11.28,25.4-20.05,40-27.31a245.3,245.3,0,0,1,67.06-22c7.87-1.39,15.73-2.29,23.77-1.12a81,81,0,0,1,41.58,18.51c2,1.67,3.86,3.46,5.78,5.19-1.06-3.22-2.28-6.33-3.62-9.38a160.85,160.85,0,0,0-46.14-60.45,3.21,3.21,0,0,0-1.73-.75,127.57,127.57,0,0,0-127.09,85.47c-1.87,5.39-3.25,10.95-4.85,16.43l.45.18C1211.32,221.15,1212.11,220.4,1212.89,219.62Z"/><path class="cls-2" d="M1285.68,365.06a115.35,115.35,0,0,0,21.35,6.87c-.41-.5-.57-.74-.78-.95-9.66-9.84-17.17-21.23-23.63-33.31a258.62,258.62,0,0,1-26.5-77c-.85-4.73-1.91-9.55-1.85-14.31A79.32,79.32,0,0,1,1276,192c.39-.42.76-.85,1.14-1.28-.07-.11-.15-.21-.23-.32-3.44,1.58-6.92,3.08-10.33,4.73a159.46,159.46,0,0,0-57.91,47.64,3.89,3.89,0,0,0-.8,2.33c.24,6.18.23,12.4,1,18.53a121.65,121.65,0,0,0,15.42,46.51C1238.63,335.22,1259.05,353.63,1285.68,365.06Z"/><path class="cls-2" d="M1375.13,135.63a183.09,183.09,0,0,1,21.81,37.59,241.6,241.6,0,0,1,17.93,60.22c1.29,8.08,2.3,16.16,1.13,24.38a81.58,81.58,0,0,1-14.37,36.63c-2.59,3.62-5.58,6.95-8.42,10.45,0,0,0,0,.08,0l.72-.25a160.61,160.61,0,0,0,68.19-52.27,3.83,3.83,0,0,0,.72-2.06,121,121,0,0,0-1.67-24.42,128.15,128.15,0,0,0-92-101.77c-1.56-.44-3.15-.81-5.11-1.31l1.28,1.46C1368.66,128.07,1372.11,131.69,1375.13,135.63Z"/><path class="cls-3" d="M1427.1,300.64a178.48,178.48,0,0,1-82.75,27.77c-8.87.69-17.61.62-26.3-1.64-14.82-3.85-28.11-10.48-39.25-21.13-.3-.28-.64-.52-1.19-1a160.38,160.38,0,0,0,50,69.67,2.9,2.9,0,0,0,1.61.63,127.09,127.09,0,0,0,96.2-37.07A125.46,125.46,0,0,0,1456,289c1.71-5,3-10.2,4.47-15.31l-.65-.37a8.73,8.73,0,0,1-.69,1A178.79,178.79,0,0,1,1427.1,300.64Z"/><path class="cls-4" d="M1607.56,323.87a184.4,184.4,0,0,0-46.88-19.22c-1.22,2.5-2.49,5-3.81,7.45,8.49,5.45,16.77,11.28,23.94,16.28,10.71,7.48,20.77,15.66,27.59,27.09,6.66,11.17,6.59,22.48-1.58,32.54a105.72,105.72,0,0,1-19.44,18.72c-21,15.3-45,24.49-69.51,32.3-3.26,1-6.72,2.1-10.34,3.2a940.68,940.68,0,0,1-305.28,39.36l-14.82-.53-11.37.61,49.47,26.49L1170,541.29c39.37-2.24,119.09-6.91,158-13.32,59.2-9.73,117.72-22.27,174.54-41.83,33.63-11.58,66.37-25.14,95.82-45.51,15.16-10.49,28.85-22.57,37.65-39.14,9.21-17.33,11.4-35,.24-52.43C1629.14,338,1618.74,330.36,1607.56,323.87Z"/><path class="cls-4" d="M1033.11,483.47s-96-7.23-159.74-15.22C830,462.82,787.06,455.59,745,443.58c-28.67-8.18-56.66-18.08-81.9-34.43-9.17-5.94-17.58-12.79-23.78-22-6.6-9.81-7.52-20.1-1.37-30.25a79.1,79.1,0,0,1,12-15.17A155.79,155.79,0,0,1,668.49,326c-2.26-4.56-4.31-9.24-6.15-14-15.5,6.63-30.3,14.6-42.86,26.4-15.27,14.34-20,31.47-13.72,51.49,5.42,17.44,17.07,30.39,30.73,41.69,21.5,17.8,46.13,30.34,71.77,40.85C780.8,502.2,856.6,519.55,934.1,529.35c39.35,5,99,13.57,99,13.57l-16.83,57.36,150.48-90.5-151.67-78.84Z"/></svg>