<svg id="Layer_1" data-name="Layer 1" xmlns="http://www.w3.org/2000/svg" viewBox="0 0 2744.3 806.28"><defs><style>.cls-1{fill:#809dab;}.cls-2{fill:#df5643;}.cls-3{fill:#e25742;}.cls-4{fill:#83a0ae;}.cls-5{fill:#025d99;}</style></defs><title>360 virtual tours</title><polygon class="cls-1" points="2399.72 683.88 2399.72 723.1 2531.65 703.49 2399.72 683.88"/><polygon class="cls-1" points="344.58 723.1 344.58 683.88 212.65 703.49 344.58 723.1"/><path class="cls-2" d="M453.79,705.16a39.12,39.12,0,0,0-8.94-4.06,35,35,0,0,0,7.06-3.71,25.84,25.84,0,0,0,7.77-8.28,20.89,20.89,0,0,0,2.76-10.61,26.14,26.14,0,0,0-3.71-13.72,27.28,27.28,0,0,0-10.67-10q-7-3.77-16.85-3.77a35,35,0,0,0-16.42,3.7,28,28,0,0,0-11.11,10.1,27.31,27.31,0,0,0-4,14.82h16.13a13,13,0,0,1,2.1-7.27,14.73,14.73,0,0,1,5.6-5,16.72,16.72,0,0,1,7.84-1.82,15.36,15.36,0,0,1,7.7,1.75,11.14,11.14,0,0,1,4.58,4.86,16.31,16.31,0,0,1,1.52,7.19,14.07,14.07,0,0,1-1.38,6.11,16.15,16.15,0,0,1-3.92,5.15,17.7,17.7,0,0,1-6.17,3.49,25.83,25.83,0,0,1-8.28,1.23v12.93a37.13,37.13,0,0,1,9.36,1.09,21,21,0,0,1,7.12,3.27,14.79,14.79,0,0,1,4.58,5.38,16.08,16.08,0,0,1,1.6,7.26,16.25,16.25,0,0,1-2.18,8.64,14.27,14.27,0,0,1-6,5.45,20.39,20.39,0,0,1-9.08,1.89,21.36,21.36,0,0,1-9.22-2,15.69,15.69,0,0,1-6.54-5.6,14.92,14.92,0,0,1-2.4-8.42H395.33a29.11,29.11,0,0,0,2.46,11.84,30.16,30.16,0,0,0,7,9.88,32.54,32.54,0,0,0,11,6.68,41.71,41.71,0,0,0,14.6,2.39,43.18,43.18,0,0,0,18.3-3.63A29,29,0,0,0,461,742.35a29.2,29.2,0,0,0,1.3-28.33A24.36,24.36,0,0,0,453.79,705.16Z"/><path class="cls-2" d="M581.34,696.3a30.51,30.51,0,0,0-9.81-6.83,28.51,28.51,0,0,0-11.48-2.4,30.79,30.79,0,0,0-8.93,1.17,11.52,11.52,0,0,0-1.57.6l29.1-36.05H556.86l-32.25,43.29a45.91,45.91,0,0,0-6.17,10.9,34.66,34.66,0,0,0-2.4,13.07q0,11.19,4.94,19.32a32.63,32.63,0,0,0,13.43,12.42,44.14,44.14,0,0,0,37.92,0,32.71,32.71,0,0,0,13.44-12.42q4.93-8.13,4.93-19.32a33.66,33.66,0,0,0-9.36-23.75ZM571.17,731a20,20,0,0,1-7.27,7.41,20.41,20.41,0,0,1-10.53,2.68,20.93,20.93,0,0,1-10.53-2.68,19.53,19.53,0,0,1-7.41-7.41,21.83,21.83,0,0,1-2.69-11,22.21,22.21,0,0,1,2.69-11,19.76,19.76,0,0,1,7.41-7.55,20.5,20.5,0,0,1,10.53-2.77,20,20,0,0,1,10.53,2.77,20.21,20.21,0,0,1,7.27,7.55,22.2,22.2,0,0,1,2.68,11A21.83,21.83,0,0,1,571.17,731Z"/><path class="cls-2" d="M713.45,671.46a43,43,0,0,0-8.35-11,34.19,34.19,0,0,0-11-7,36,36,0,0,0-13.22-2.39,35,35,0,0,0-16.12,3.7,35.9,35.9,0,0,0-12.49,10.68,51.63,51.63,0,0,0-8.07,16.63,76.3,76.3,0,0,0-2.83,21.43,79.61,79.61,0,0,0,1.82,17.5,56.79,56.79,0,0,0,5.3,14.53,43,43,0,0,0,8.35,11,34.4,34.4,0,0,0,10.9,7,37.42,37.42,0,0,0,29.41-1.3,36,36,0,0,0,12.5-10.68,51.82,51.82,0,0,0,8.06-16.63,76,76,0,0,0,2.83-21.43A79.7,79.7,0,0,0,718.75,686,56.48,56.48,0,0,0,713.45,671.46Zm-11.33,47.06a40.87,40.87,0,0,1-4.57,11.7,22.88,22.88,0,0,1-7.19,7.62,17.93,17.93,0,0,1-17.15.95,19.67,19.67,0,0,1-6.24-5,31.07,31.07,0,0,1-4.72-7.78,45.38,45.38,0,0,1-3-10.24,70,70,0,0,1-1-12.27,65.22,65.22,0,0,1,1.6-15,41.78,41.78,0,0,1,4.5-11.69,22.25,22.25,0,0,1,7.12-7.63,17.21,17.21,0,0,1,9.44-2.68,17.43,17.43,0,0,1,7.77,1.74,19.31,19.31,0,0,1,6.32,5,31.18,31.18,0,0,1,4.72,7.77,45.68,45.68,0,0,1,3,10.24,70.22,70.22,0,0,1,1,12.28A65.07,65.07,0,0,1,702.12,718.52Z"/><polygon class="cls-2" points="895.47 724.12 865.54 652.65 845.79 652.65 895.47 760 945.15 652.65 925.39 652.65 895.47 724.12"/><rect class="cls-2" x="994.68" y="652.65" width="17.29" height="101.69"/><path class="cls-2" d="M1123.17,711.91a29.85,29.85,0,0,0,12.71-11,33,33,0,0,0,0-33.26,29.85,29.85,0,0,0-12.71-11q-8.22-3.93-19.4-3.92H1072.4V754.33h17.14V715.84h10.58l25.59,38.49h20.77L1117.72,714A36.51,36.51,0,0,0,1123.17,711.91Zm-33.63-44.3h13.51a24.89,24.89,0,0,1,10.31,2,15.6,15.6,0,0,1,6.83,5.74,18.59,18.59,0,0,1,0,18.52,15.42,15.42,0,0,1-6.83,5.81,24.89,24.89,0,0,1-10.31,2h-13.51Z"/><polygon class="cls-2" points="1186.28 668.48 1213.01 668.48 1213.01 754.33 1230.3 754.33 1230.3 668.48 1257.17 668.48 1257.17 652.65 1186.28 652.65 1186.28 668.48"/><path class="cls-2" d="M1363.51,720.19a25.2,25.2,0,0,1-2.26,11,16.67,16.67,0,0,1-6.68,7.34,24.34,24.34,0,0,1-21.93,0,16.64,16.64,0,0,1-6.69-7.34,25.2,25.2,0,0,1-2.25-11V652.65h-17.14v68.27a40.25,40.25,0,0,0,2.69,15.11,31.37,31.37,0,0,0,7.63,11.33,33.62,33.62,0,0,0,11.76,7.12,46.57,46.57,0,0,0,29.93,0,33.62,33.62,0,0,0,11.76-7.12A31.49,31.49,0,0,0,1378,736a40.25,40.25,0,0,0,2.69-15.11V652.65h-17.14Z"/><path class="cls-2" d="M1429.45,754.33h19.32l11.59-26.15h37.47l11.67,26.15h19.32L1479.14,647Zm63.45-40.67h-27.57l13.81-32.25Z"/><polygon class="cls-2" points="1595.49 652.65 1578.35 652.65 1578.35 754.33 1635.87 754.33 1635.87 738.93 1595.49 738.93 1595.49 652.65"/><polygon class="cls-2" points="1757.17 668.48 1783.89 668.48 1783.89 754.33 1801.18 754.33 1801.18 668.48 1828.06 668.48 1828.06 652.65 1757.17 652.65 1757.17 668.48"/><path class="cls-2" d="M1955.67,665.79a51.63,51.63,0,0,0-16.85-11,58,58,0,0,0-41.91,0,52,52,0,0,0-16.78,11A49,49,0,0,0,1869,682.5a58.16,58.16,0,0,0,0,42,50.57,50.57,0,0,0,27.75,28,54.27,54.27,0,0,0,21.06,4,54.89,54.89,0,0,0,21.14-4,50.42,50.42,0,0,0,27.81-28,58,58,0,0,0,0-42A48.68,48.68,0,0,0,1955.67,665.79Zm-5.81,52.15a34,34,0,0,1-7.19,11.48,32.66,32.66,0,0,1-11,7.55,37.1,37.1,0,0,1-27.74,0,32.66,32.66,0,0,1-11-7.55,34,34,0,0,1-7.19-11.48,42.4,42.4,0,0,1,0-28.91,34.17,34.17,0,0,1,7.19-11.47,32.66,32.66,0,0,1,11-7.55,37.49,37.49,0,0,1,27.89,0,32.61,32.61,0,0,1,11,7.55,33.24,33.24,0,0,1,7.12,11.47,41,41,0,0,1,2.47,14.46A40,40,0,0,1,1949.86,717.94Z"/><path class="cls-2" d="M2081.4,720.19a25.2,25.2,0,0,1-2.26,11,16.62,16.62,0,0,1-6.68,7.34,24.34,24.34,0,0,1-21.93,0,16.62,16.62,0,0,1-6.68-7.34,25.05,25.05,0,0,1-2.26-11V652.65h-17.14v68.27a40.25,40.25,0,0,0,2.69,15.11,31.37,31.37,0,0,0,7.63,11.33,33.62,33.62,0,0,0,11.76,7.12,46.57,46.57,0,0,0,29.93,0,33.62,33.62,0,0,0,11.76-7.12,31.49,31.49,0,0,0,7.63-11.33,40.25,40.25,0,0,0,2.69-15.11V652.65H2081.4Z"/><path class="cls-2" d="M2209,711.91a29.8,29.8,0,0,0,12.71-11,33,33,0,0,0,0-33.26,29.8,29.8,0,0,0-12.71-11q-8.21-3.93-19.39-3.92h-31.38V754.33h17.14V715.84H2186l25.58,38.49h20.78L2203.57,714A36.39,36.39,0,0,0,2209,711.91Zm-33.63-44.3h13.51a24.89,24.89,0,0,1,10.31,2,15.6,15.6,0,0,1,6.83,5.74,18.59,18.59,0,0,1,0,18.52,15.42,15.42,0,0,1-6.83,5.81,24.89,24.89,0,0,1-10.31,2h-13.51Z"/><path class="cls-2" d="M2346.72,714.46a26.89,26.89,0,0,0-6.1-8.65,40.88,40.88,0,0,0-8.35-6.1,60.51,60.51,0,0,0-9.15-4.07q-6.1-2.17-10.54-4.21a35.64,35.64,0,0,1-7.19-4.21,14.84,14.84,0,0,1-4.06-4.65,11.51,11.51,0,0,1-1.31-5.52,10,10,0,0,1,6-9.37,17.58,17.58,0,0,1,7.77-1.52,18.69,18.69,0,0,1,9,2,23.85,23.85,0,0,1,6.61,5.23,36.76,36.76,0,0,1,4.87,7l13.95-7.84a42.94,42.94,0,0,0-7.2-10.32,36.67,36.67,0,0,0-11.25-8.13,36.05,36.05,0,0,0-15.69-3.2,37.58,37.58,0,0,0-16.34,3.42,28,28,0,0,0-11.41,9.58,24.78,24.78,0,0,0-4.21,14.31,25.19,25.19,0,0,0,2.76,12.2,27.73,27.73,0,0,0,7,8.5,43.33,43.33,0,0,0,8.86,5.6,87.79,87.79,0,0,0,8.43,3.48,113.54,113.54,0,0,1,11.26,4.72,22.35,22.35,0,0,1,7.62,5.81,14,14,0,0,1,2.76,9.08,12.59,12.59,0,0,1-7.4,11.84,18.94,18.94,0,0,1-8.28,1.67,22,22,0,0,1-10.39-2.47,29.1,29.1,0,0,1-8.57-6.9A63.66,63.66,0,0,1,2289,721.5l-12.79,9a47.6,47.6,0,0,0,9.08,13,45.18,45.18,0,0,0,13.37,9.44,38.53,38.53,0,0,0,16.49,3.56,37.68,37.68,0,0,0,12.56-2.11,35.25,35.25,0,0,0,10.82-6,29.23,29.23,0,0,0,7.63-9.52,27.71,27.71,0,0,0,2.83-12.71A28.32,28.32,0,0,0,2346.72,714.46Z"/><path class="cls-3" d="M1031.22,106.32q60,60,60,144.85t-60,144.84q-60,60-144.84,60T741.54,396q-60-60-60-144.84t60-144.85q60-60,144.84-60T1031.22,106.32ZM886.38,98.57q-63.3,0-108,44.65t-44.65,108q0,63.29,44.78,108.07T886.38,404q63.29,0,107.94-44.77T1039,251.17q0-63.28-44.66-107.95T886.38,98.57Z"/><path class="cls-3" d="M186.72,246.41q-42.54-14.25-68.92-40.65T91.41,140.35q0-38.28,27.39-65.8T185.22,47q38.52,0,66,27.26,15.51,15,26,47.78l-47,18.52q-8.51-23-15.51-30a42.43,42.43,0,0,0-59.28.12,40.1,40.1,0,0,0-12.26,29.65,40.47,40.47,0,0,0,12.26,29.76q13.76,13.51,38,24.77,47,15.27,79.8,48Q310.05,279.2,310.05,331T273.4,419.4Q236.74,456,185.22,456.05q-51.79,0-88.31-36.78-29.26-29.26-37-80.8l50.28-18.26q4.74,44.28,23.26,62.79,21.51,21.53,51.79,21.52T237,383q21.51-21.51,21.51-52,0-30.27-21.51-51.79Q216.48,258.67,186.72,246.41Z"/><path class="cls-3" d="M416.8,286.19V451.8H365V51.54H416.8V234.41H540.38V51.54h51.78V451.8H540.38V286.19Z"/><path class="cls-3" d="M1480.13,106.32q60,60,60,144.85t-60,144.84q-60,60-144.84,60t-144.84-60q-60-60-60-144.84t60-144.85q60-60,144.84-60T1480.13,106.32Zm-144.84-7.75q-63.29,0-107.94,44.65t-44.66,108q0,63.29,44.78,108.07T1335.29,404q63.29,0,108-44.77t44.65-108.07q0-63.28-44.65-107.95T1335.29,98.57Z"/><path class="cls-3" d="M1723.09,103.32V451.8h-52V103.32h-93.31V51.54H1816.4v51.78Z"/><path class="cls-3" d="M1922.28,51.54V451.8H1870.5V51.54Z"/><path class="cls-3" d="M2068.57,51.54,2198.4,275.93,2327.74,51.54H2375V451.8h-51.79V162.61L2198.4,378.75,2073.07,162.61V451.8h-51.78V51.54Z"/><path class="cls-3" d="M2684.41,51.54v51.78H2520.56V225.65h163.85v51.78H2520.56V399.76h163.85v52H2468.77V51.54Z"/><path class="cls-4" d="M763.86,223.41c.83-.83,1.61-1.7,2.46-2.5,11.83-11.28,25.4-20,40-27.32a245.37,245.37,0,0,1,67.07-22c7.87-1.39,15.73-2.28,23.76-1.11A80.9,80.9,0,0,1,938.7,189c2,1.68,3.86,3.46,5.78,5.2-1.06-3.23-2.27-6.33-3.62-9.39a160.83,160.83,0,0,0-46.14-60.45,3.25,3.25,0,0,0-1.73-.75,127.57,127.57,0,0,0-127.08,85.47c-1.87,5.39-3.25,10.95-4.86,16.43l.45.18C762.29,224.94,763.09,224.18,763.86,223.41Z"/><path class="cls-5" d="M775.21,313.92C789.6,339,810,357.41,836.65,368.84A114.61,114.61,0,0,0,858,375.71c-.4-.49-.57-.74-.78-.95-9.65-9.84-17.17-21.22-23.62-33.3a258.64,258.64,0,0,1-26.51-77c-.84-4.74-1.9-9.55-1.85-14.32.26-20.85,7.54-39,21.71-54.4.39-.42.76-.86,1.14-1.29l-.22-.31c-3.45,1.57-6.93,3.07-10.34,4.73a159.43,159.43,0,0,0-57.91,47.63,3.93,3.93,0,0,0-.8,2.33c.24,6.18.24,12.41,1,18.54A122.1,122.1,0,0,0,775.21,313.92Z"/><path class="cls-5" d="M926.11,139.41A183,183,0,0,1,947.91,177a242.12,242.12,0,0,1,17.94,60.23c1.28,8.08,2.29,16.15,1.12,24.38a81.54,81.54,0,0,1-14.37,36.62c-2.59,3.62-5.58,7-8.42,10.46,0,0,.05,0,.09,0a6,6,0,0,0,.71-.25,160.62,160.62,0,0,0,68.2-52.27,3.79,3.79,0,0,0,.71-2.06,121.8,121.8,0,0,0-1.66-24.42A128.15,128.15,0,0,0,920.2,128c-1.56-.44-3.14-.81-5.1-1.31l1.28,1.46C919.63,131.86,923.08,135.47,926.11,139.41Z"/><path class="cls-4" d="M978.07,304.43a178.38,178.38,0,0,1-82.74,27.77c-8.87.68-17.62.61-26.31-1.65-14.82-3.85-28.1-10.47-39.25-21.12-.3-.29-.64-.53-1.19-1a163.09,163.09,0,0,0,15.64,31.43,161,161,0,0,0,34.39,38.23,2.92,2.92,0,0,0,1.62.64,127.23,127.23,0,0,0,48.51-7.06A127.82,127.82,0,0,0,1007,292.8c1.7-5,3-10.2,4.46-15.3l-.64-.37a6.94,6.94,0,0,1-.7,1A178.84,178.84,0,0,1,978.07,304.43Z"/><path class="cls-5" d="M1212.77,223.91c.83-.83,1.62-1.7,2.46-2.5,11.84-11.28,25.41-20,40-27.32a245.37,245.37,0,0,1,67.07-22c7.87-1.39,15.73-2.28,23.76-1.11a81,81,0,0,1,41.59,18.5c2,1.68,3.85,3.46,5.78,5.2-1.06-3.23-2.28-6.33-3.63-9.39a160.91,160.91,0,0,0-46.13-60.45,3.39,3.39,0,0,0-1.74-.75,127.57,127.57,0,0,0-127.08,85.47C1213,215,1211.57,220.54,1210,226l.44.17C1211.2,225.44,1212,224.68,1212.77,223.91Z"/><path class="cls-4" d="M1285.56,369.34a114.61,114.61,0,0,0,21.35,6.87c-.4-.49-.57-.74-.77-.95-9.66-9.83-17.18-21.22-23.63-33.3A258.92,258.92,0,0,1,1256,265c-.84-4.74-1.9-9.55-1.84-14.32.25-20.85,7.53-39,21.71-54.4.38-.42.76-.86,1.14-1.29l-.23-.31c-3.45,1.57-6.93,3.07-10.33,4.73A159.38,159.38,0,0,0,1208.53,247a3.93,3.93,0,0,0-.8,2.33c.24,6.18.24,12.41,1,18.54a121.92,121.92,0,0,0,15.41,46.51C1238.51,339.5,1258.94,357.91,1285.56,369.34Z"/><path class="cls-4" d="M1375,139.91a182.85,182.85,0,0,1,21.8,37.59,242.12,242.12,0,0,1,17.94,60.23c1.29,8.08,2.3,16.15,1.12,24.38a81.64,81.64,0,0,1-14.36,36.62c-2.59,3.62-5.58,7-8.42,10.46,0,0,0,0,.08,0a6,6,0,0,0,.71-.25,160.56,160.56,0,0,0,68.2-52.27,3.78,3.78,0,0,0,.71-2.05,121.12,121.12,0,0,0-1.66-24.43,128.11,128.11,0,0,0-92-101.76c-1.56-.44-3.14-.81-5.1-1.31l1.28,1.46C1368.55,132.36,1372,136,1375,139.91Z"/><path class="cls-5" d="M1427,304.93a178.38,178.38,0,0,1-82.74,27.77c-8.87.69-17.62.61-26.3-1.65-14.82-3.85-28.11-10.47-39.26-21.12-.29-.29-.64-.53-1.19-1a163.13,163.13,0,0,0,15.65,31.43,160.76,160.76,0,0,0,34.38,38.23,3,3,0,0,0,1.62.64,127,127,0,0,0,48.51-7.06,127.82,127.82,0,0,0,78.28-78.9c1.7-5,3-10.2,4.46-15.3l-.64-.37a6.94,6.94,0,0,1-.7,1A178.49,178.49,0,0,1,1427,304.93Z"/><path class="cls-1" d="M1607.45,328.15a184.68,184.68,0,0,0-46.89-19.22q-1.82,3.76-3.8,7.45c8.49,5.45,16.77,11.28,23.93,16.29,10.71,7.47,20.77,15.66,27.59,27.09,6.67,11.16,6.6,22.47-1.57,32.53A105.7,105.7,0,0,1,1587.27,411c-21,15.31-45,24.5-69.52,32.3q-4.89,1.56-10.33,3.2a940.74,940.74,0,0,1-305.29,39.36l-14.81-.52L1176,486l49.47,26.48-55.57,33.14c39.37-2.24,119.09-6.92,158-13.32,59.19-9.73,117.72-22.27,174.54-41.84,33.62-11.57,66.37-25.13,95.81-45.51,15.16-10.49,28.85-22.57,37.66-39.13,9.21-17.33,11.39-35,.23-52.43C1629,342.29,1618.63,334.65,1607.45,328.15Z"/><path class="cls-1" d="M1033,487.75s-96-7.23-159.75-15.22c-43.32-5.43-86.3-12.65-128.36-24.66-28.66-8.19-56.66-18.08-81.89-34.43-9.18-5.94-17.59-12.8-23.78-22-6.61-9.82-7.52-20.11-1.37-30.26a78.33,78.33,0,0,1,12-15.17,154.87,154.87,0,0,1,18.49-15.69q-3.39-6.85-6.15-14c-15.51,6.64-30.31,14.61-42.87,26.4-15.27,14.34-19.94,31.47-13.72,51.49,5.42,17.44,17.08,30.4,30.73,41.7,21.51,17.8,46.14,30.33,71.78,40.84,72.54,29.74,148.34,47.09,225.83,56.89,39.36,5,99,13.57,99,13.57l-16.83,57.36,150.48-90.5L1015,435.22Z"/></svg>