<svg id="Layer_1" data-name="Layer 1" viewBox="677.078 1160.73 2644.602 681.297" xmlns="http://www.w3.org/2000/svg">
  <defs>
    <style>.cls-1{fill:#0f1319;}.cls-2{fill:#e25643;}.cls-3{fill:#e4e6e5;}</style>
  </defs>
  <path class="cls-2" d="M1072.92,1783.8a33.08,33.08,0,0,0-5.67-2.48,31,31,0,0,0,3.79-1.66,19.13,19.13,0,0,0,7-6.31,15.9,15.9,0,0,0,2.48-8.9,19.31,19.31,0,0,0-3.2-10.78,22,22,0,0,0-9.29-7.8,34.33,34.33,0,0,0-14.71-2.87,30.5,30.5,0,0,0-14.54,3.26,24.79,24.79,0,0,0-9.57,8.68,22.45,22.45,0,0,0-3.43,12.28h17.48a8.81,8.81,0,0,1,1.32-4.7,9.06,9.06,0,0,1,3.54-3.33,11.11,11.11,0,0,1,5.2-1.15,10.87,10.87,0,0,1,4.87,1,6.31,6.31,0,0,1,2.87,2.71,8.69,8.69,0,0,1,.89,4,8.08,8.08,0,0,1-1,3.92,10.28,10.28,0,0,1-2.88,3.27,14.45,14.45,0,0,1-4.47,2.26,19.6,19.6,0,0,1-5.92.83v12.06a28.67,28.67,0,0,1,7.41.83,17,17,0,0,1,5.14,2.21,8.53,8.53,0,0,1,3,3.31,10.28,10.28,0,0,1,.94,4.48,9.68,9.68,0,0,1-1.38,5.42,8.77,8.77,0,0,1-3.93,3.21,14.25,14.25,0,0,1-5.75,1.11,14.65,14.65,0,0,1-6-1.22,9.94,9.94,0,0,1-4.43-3.76,11.56,11.56,0,0,1-1.66-6.41h-18.58a24.58,24.58,0,0,0,7.91,18.3,28.94,28.94,0,0,0,9.46,5.86,34.08,34.08,0,0,0,12.49,2.16,41.78,41.78,0,0,0,16.32-2.88,23.76,23.76,0,0,0,10.45-8,20,20,0,0,0,3.65-11.88,19,19,0,0,0-2.6-10.18A20,20,0,0,0,1072.92,1783.8Z"></path>
  <path class="cls-2" d="M1200,1776.34a26.45,26.45,0,0,0-7.75-5,21.75,21.75,0,0,0-8.51-1.77,21.41,21.41,0,0,0-7,1c-.1,0-.2.12-.3.15l23.25-25.7H1176l-22.23,28.21a52.08,52.08,0,0,0-6.53,9.89,25.29,25.29,0,0,0-2.65,11.56q0,9.63,4.26,16.15a25.71,25.71,0,0,0,11.44,9.68,41.55,41.55,0,0,0,31.74,0,25.5,25.5,0,0,0,11.4-9.68q4.2-6.52,4.2-16.15a25.55,25.55,0,0,0-2.05-10.39A23.71,23.71,0,0,0,1200,1776.34Zm-12.56,25.22a11.77,11.77,0,0,1-4.64,4.64,13.46,13.46,0,0,1-6.58,1.6,13.81,13.81,0,0,1-6.64-1.6,12,12,0,0,1-4.75-4.64,13.5,13.5,0,0,1-1.77-6.92,12.5,12.5,0,0,1,6.47-11.39,13.38,13.38,0,0,1,6.69-1.66,13.18,13.18,0,0,1,6.58,1.66,12.53,12.53,0,0,1,4.64,4.53,13.14,13.14,0,0,1,1.72,6.86A13.77,13.77,0,0,1,1187.44,1801.56Z"></path>
  <path class="cls-2" d="M1329.28,1758.2a29.43,29.43,0,0,0-6.64-8.18,30,30,0,0,0-8.9-5.15,31,31,0,0,0-10.9-1.87,31.58,31.58,0,0,0-13.16,2.7,27.94,27.94,0,0,0-10.23,8,38,38,0,0,0-6.58,12.61,56.66,56.66,0,0,0-2.32,17,57.72,57.72,0,0,0,1.55,13.77,43,43,0,0,0,4.37,11.28,29.89,29.89,0,0,0,6.8,8.24,29.65,29.65,0,0,0,19.46,7,32.37,32.37,0,0,0,13.44-2.71,26.88,26.88,0,0,0,10.18-8,38.44,38.44,0,0,0,6.41-12.67,57.46,57.46,0,0,0,2.27-16.81,60.22,60.22,0,0,0-1.5-13.93A42.91,42.91,0,0,0,1329.28,1758.2Zm-13.44,35a25.77,25.77,0,0,1-2.77,7.63,13.3,13.3,0,0,1-4.48,4.81,10.77,10.77,0,0,1-5.86,1.66,10.9,10.9,0,0,1-4.75-1,11.28,11.28,0,0,1-3.93-3.15,20.38,20.38,0,0,1-2.93-5,30.74,30.74,0,0,1-1.88-6.64,47.31,47.31,0,0,1-.66-8.18,45.67,45.67,0,0,1,1-10,25.77,25.77,0,0,1,2.88-7.58,14.1,14.1,0,0,1,4.48-4.81,10.53,10.53,0,0,1,5.8-1.66,11,11,0,0,1,4.76,1,11.37,11.37,0,0,1,3.92,3.16,20.52,20.52,0,0,1,2.94,5,28.69,28.69,0,0,1,1.82,6.64,52,52,0,0,1,.61,8.18A48.11,48.11,0,0,1,1315.84,1793.15Z"></path>
  <polygon class="cls-2" points="1519.5 1790.66 1500.59 1744.55 1478.69 1744.55 1519.5 1826.82 1560.08 1744.55 1538.19 1744.55 1519.5 1790.66"></polygon>
  <rect class="cls-2" x="1621.35" y="1744.54" width="18.91" height="77.41"></rect>
  <path class="cls-2" d="M1754.56,1792a23.3,23.3,0,0,0,10.12-9,25.24,25.24,0,0,0,3.43-13.16,25,25,0,0,0-3.43-13.11,23.43,23.43,0,0,0-10.12-9q-6.69-3.27-16.64-3.27h-28.1V1822h18.59V1795.3h5.85l16.49,26.66h22l-20.13-29.14C1753.27,1792.56,1754,1792.34,1754.56,1792Zm-7.24-16.09a9.28,9.28,0,0,1-4.21,3.43,15.8,15.8,0,0,1-6.41,1.22h-8.29v-20.13h8.29a15.63,15.63,0,0,1,6.41,1.22,9.32,9.32,0,0,1,4.21,3.42,11,11,0,0,1,0,10.84Z"></path>
  <polygon class="cls-2" points="1826.72 1761.46 1847.84 1761.46 1847.84 1821.96 1866.64 1821.96 1866.64 1761.46 1887.88 1761.46 1887.88 1744.55 1826.72 1744.55 1826.72 1761.46"></polygon>
  <path class="cls-2" d="M1992.38,1795.08a16.87,16.87,0,0,1-1.32,7,10.24,10.24,0,0,1-4,4.59,12.85,12.85,0,0,1-6.8,1.66,13.31,13.31,0,0,1-7-1.66,10.61,10.61,0,0,1-4.1-4.59,16.38,16.38,0,0,1-1.38-7v-50.54H1949v52a31.7,31.7,0,0,0,2.33,12.67,23.9,23.9,0,0,0,6.63,9,28.24,28.24,0,0,0,9.9,5.3,44.13,44.13,0,0,0,24.33,0,27.62,27.62,0,0,0,10-5.3,24.69,24.69,0,0,0,6.64-9,31.17,31.17,0,0,0,2.37-12.67v-52h-18.8Z"></path>
  <path class="cls-2" d="M2071.9,1822H2093l7.22-14.93h24.55L2132,1822h21.35l-40.59-82.29Zm32.19-29.2,8.62-19.68,8.58,19.68Z"></path>
  <polygon class="cls-2" points="2233.15 1744.55 2214.57 1744.55 2214.57 1821.96 2264.34 1821.96 2264.34 1805.81 2233.15 1805.81 2233.15 1744.55"></polygon>
  <polygon class="cls-2" points="2404.57 1761.46 2425.69 1761.46 2425.69 1821.96 2444.49 1821.96 2444.49 1761.46 2465.72 1761.46 2465.72 1744.55 2404.57 1744.55 2404.57 1761.46"></polygon>
  <path class="cls-2" d="M2588.87,1753.94a38.19,38.19,0,0,0-13.16-8.29,49,49,0,0,0-33.12,0,38.7,38.7,0,0,0-13.28,8.29,37.63,37.63,0,0,0-8.73,12.89,42.32,42.32,0,0,0-3.1,16.42,45.51,45.51,0,0,0,2.93,16.53,36.2,36.2,0,0,0,8.63,13.11,40.28,40.28,0,0,0,13.38,8.57,45.08,45.08,0,0,0,16.76,3,44.23,44.23,0,0,0,16.64-3,39.89,39.89,0,0,0,13.22-8.57,38.34,38.34,0,0,0,8.73-13.11,43.36,43.36,0,0,0,3.1-16.53,41.11,41.11,0,0,0-3.21-16.42A39.55,39.55,0,0,0,2588.87,1753.94Zm-9.62,38.66a22.69,22.69,0,0,1-4.43,7.35,20.42,20.42,0,0,1-6.74,4.87,21.46,21.46,0,0,1-8.9,1.76,22.23,22.23,0,0,1-9-1.76,21.26,21.26,0,0,1-7-4.87,20.83,20.83,0,0,1-4.47-7.41,28.94,28.94,0,0,1,0-18.69,20.82,20.82,0,0,1,11.44-12.16,22.5,22.5,0,0,1,9.13-1.78,22,22,0,0,1,8.9,1.78,20.53,20.53,0,0,1,6.91,4.86,20.3,20.3,0,0,1,4.32,7.36,29.27,29.27,0,0,1,1.43,9.34A26.56,26.56,0,0,1,2579.25,1792.6Z"></path>
  <path class="cls-2" d="M2708.58,1795.08a17,17,0,0,1-1.32,7,10.24,10.24,0,0,1-4,4.59,12.88,12.88,0,0,1-6.8,1.66,13.31,13.31,0,0,1-7-1.66,10.55,10.55,0,0,1-4.1-4.59,16.38,16.38,0,0,1-1.38-7v-50.54h-18.69v52a31.7,31.7,0,0,0,2.32,12.67,23.81,23.81,0,0,0,6.64,9,28.15,28.15,0,0,0,9.9,5.3,44.13,44.13,0,0,0,24.33,0,27.62,27.62,0,0,0,9.95-5.3,24.69,24.69,0,0,0,6.64-9,31.17,31.17,0,0,0,2.37-12.67v-52h-18.8Z"></path>
  <path class="cls-2" d="M2841.13,1792a23.3,23.3,0,0,0,10.12-9,25.24,25.24,0,0,0,3.43-13.16,25,25,0,0,0-3.43-13.11,23.43,23.43,0,0,0-10.12-9q-6.69-3.27-16.64-3.27h-28.1V1822H2815V1795.3h5.85l16.49,26.66h22l-20.13-29.14C2839.84,1792.56,2840.52,1792.34,2841.13,1792Zm-7.24-16.09a9.28,9.28,0,0,1-4.21,3.43,15.8,15.8,0,0,1-6.41,1.22H2815v-20.13h8.29a15.63,15.63,0,0,1,6.41,1.22,9.32,9.32,0,0,1,4.21,3.42,11,11,0,0,1,0,10.84Z"></path>
  <path class="cls-2" d="M2971.85,1784.58a26.42,26.42,0,0,0-6.3-4.92,54.84,54.84,0,0,0-7.69-3.6c-2.58-.88-4.94-1.77-7.07-2.65a56,56,0,0,1-5.42-2.54A10.18,10.18,0,0,1,2942,1768a6.15,6.15,0,0,1-1.16-3.7,5.22,5.22,0,0,1,.94-3.1,6.1,6.1,0,0,1,2.71-2,12.37,12.37,0,0,1,4.53-.71,14.48,14.48,0,0,1,5.48,1,15.38,15.38,0,0,1,4.81,3.15,20.71,20.71,0,0,1,3.76,4.86l14.27-8a33.2,33.2,0,0,0-5.75-7.92,29.23,29.23,0,0,0-9.4-6.41,33,33,0,0,0-13.39-2.49,34.45,34.45,0,0,0-13.71,2.66,22.79,22.79,0,0,0-9.78,7.63,19.64,19.64,0,0,0-3.6,11.83,19.85,19.85,0,0,0,2.16,9.68,24.5,24.5,0,0,0,5.41,6.75,33.47,33.47,0,0,0,6.8,4.59q3.54,1.75,6.42,2.87,5.53,2.22,9,3.82a12.81,12.81,0,0,1,4.86,3.48,7.62,7.62,0,0,1,1.44,4.76,7.31,7.31,0,0,1-1.1,4,7.16,7.16,0,0,1-3.27,2.66,12,12,0,0,1-4.81.94,16.58,16.58,0,0,1-7.46-1.72,22.08,22.08,0,0,1-6.36-4.76,35.15,35.15,0,0,1-5.2-7.24L2916.5,1804a31.56,31.56,0,0,0,7.3,10.4,37.29,37.29,0,0,0,11.23,7.3,35.23,35.23,0,0,0,14,2.76,34.28,34.28,0,0,0,10.73-1.66,31,31,0,0,0,9.18-4.75,22.55,22.55,0,0,0,6.47-7.63,22.67,22.67,0,0,0-3.54-25.88Z"></path>
  <polygon class="cls-3" points="3036.07 1804.07 3169.08 1784.3 3036.07 1764.53 3036.07 1804.07"></polygon>
  <polygon class="cls-3" points="964.19 1804.07 964.19 1764.53 831.19 1784.3 964.19 1804.07"></polygon>
  <path class="cls-3" d="M1389,1352.05c1.6-5.48,3-11,4.85-16.43A127.16,127.16,0,0,1,1521,1250.15a3.24,3.24,0,0,1,1.73.75,160.83,160.83,0,0,1,46.13,60.45c1.35,3.05,2.57,6.16,3.63,9.38-1.93-1.73-3.81-3.52-5.78-5.2a81,81,0,0,0-41.59-18.5c-8-1.17-15.89-.28-23.76,1.12a244.52,244.52,0,0,0-67.06,22c-14.57,7.26-28.14,16-40,27.31-.84.81-1.63,1.68-2.45,2.5s-1.58,1.53-2.37,2.29Z"></path>
  <path class="cls-3" d="M1486,1502.24a114.63,114.63,0,0,1-21.35-6.88c-26.62-11.42-47.05-29.84-61.44-54.92a121.8,121.8,0,0,1-15.41-46.51c-.74-6.13-.74-12.35-1-18.54a4,4,0,0,1,.8-2.33,159.48,159.48,0,0,1,57.92-47.63c3.4-1.65,6.88-3.16,10.33-4.73l.23.32-1.14,1.28c-14.18,15.37-21.46,33.55-21.71,54.41-.06,4.76,1,9.57,1.84,14.31a258.92,258.92,0,0,0,26.51,77c6.45,12.08,14,23.47,23.63,33.3C1485.41,1501.49,1485.58,1501.74,1486,1502.24Z"></path>
  <path class="cls-3" d="M1572.17,1435.21c2.84-3.5,5.83-6.84,8.42-10.45a81.72,81.72,0,0,0,14.36-36.63c1.18-8.23.17-16.3-1.12-24.38a242.12,242.12,0,0,0-17.94-60.23,183.12,183.12,0,0,0-21.8-37.59c-3-3.94-6.47-7.55-9.73-11.31l-1.28-1.46c2,.5,3.54.87,5.1,1.31a128.15,128.15,0,0,1,92,101.76,121.17,121.17,0,0,1,1.66,24.43,3.84,3.84,0,0,1-.71,2.06A160.62,160.62,0,0,1,1573,1435c-.23.1-.47.18-.71.26C1572.21,1435.25,1572.16,1435.21,1572.17,1435.21Z"></path>
  <path class="cls-3" d="M1639.46,1404c-1.47,5.11-2.76,10.28-4.46,15.3a127.86,127.86,0,0,1-78.28,78.91,127.22,127.22,0,0,1-48.51,7,3,3,0,0,1-1.62-.64,160.57,160.57,0,0,1-34.38-38.23,162.56,162.56,0,0,1-15.65-31.43c.55.45.9.68,1.19,1,11.15,10.65,24.44,17.27,39.26,21.13,8.68,2.25,17.43,2.33,26.3,1.64a178.51,178.51,0,0,0,114.81-54.09,6.94,6.94,0,0,0,.7-1Z"></path>
  <path class="cls-2" d="M814.7,1372.94q-42.53-14.26-68.92-40.66t-26.39-65.41q0-38.28,27.39-65.79t66.42-27.52q38.52,0,66,27.27,15.51,15,26,47.78l-47,18.51q-8.51-23-15.51-30a42.44,42.44,0,0,0-59.29.12,42.13,42.13,0,0,0,0,59.42q13.76,13.5,38,24.76,47,15.27,79.8,48Q938,1405.71,938,1457.49t-36.65,88.43q-36.64,36.66-88.18,36.65-51.78,0-88.31-36.77-29.26-29.28-37-80.8l50.28-18.27q4.76,44.28,23.27,62.79Q782.93,1531,813.2,1531T865,1509.52q21.51-21.51,21.52-52,0-30.27-21.52-51.78Q844.46,1385.19,814.7,1372.94Z"></path>
  <path class="cls-2" d="M1044.78,1412.71v165.61H993V1178.06h51.78v182.87h123.58V1178.06h51.79v400.26h-51.79V1412.71Z"></path>
  <path class="cls-2" d="M1659.2,1232.85q60,60,60,144.84t-60,144.84q-60,60-144.84,60t-144.84-60q-60-60-60-144.84t60-144.84q60-60,144.84-60T1659.2,1232.85Zm-144.84-7.76q-63.28,0-107.94,44.65t-44.66,108q0,63.29,44.78,108.07t107.82,44.78q63.29,0,108-44.78T1667,1377.69q0-63.29-44.65-108T1514.36,1225.09Z"></path>
  <path class="cls-3" d="M1838,1352.55c1.6-5.48,3-11,4.85-16.43a127.16,127.16,0,0,1,127.09-85.47,3.21,3.21,0,0,1,1.73.75,161,161,0,0,1,46.14,60.45c1.34,3.05,2.56,6.16,3.62,9.38-1.92-1.73-3.8-3.52-5.78-5.19a81,81,0,0,0-41.58-18.51c-8-1.17-15.9-.27-23.77,1.12a244.63,244.63,0,0,0-67.06,22c-14.57,7.26-28.14,16-40,27.31-.84.81-1.63,1.68-2.45,2.5s-1.58,1.53-2.36,2.29Z"></path>
  <path class="cls-3" d="M1934.89,1502.74a115.11,115.11,0,0,1-21.35-6.88c-26.62-11.42-47-29.84-61.44-54.92a121.8,121.8,0,0,1-15.41-46.51c-.74-6.13-.73-12.35-1-18.54a4,4,0,0,1,.8-2.33,159.65,159.65,0,0,1,57.92-47.63c3.41-1.65,6.89-3.16,10.33-4.73l.23.32c-.38.42-.75.86-1.14,1.28a79.25,79.25,0,0,0-21.71,54.41c-.06,4.76,1,9.57,1.85,14.31a258.62,258.62,0,0,0,26.5,77c6.46,12.08,14,23.47,23.63,33.31A11.51,11.51,0,0,1,1934.89,1502.74Z"></path>
  <path class="cls-3" d="M2021.08,1435.71c2.84-3.5,5.83-6.84,8.42-10.45a81.69,81.69,0,0,0,14.37-36.63c1.17-8.23.16-16.3-1.13-24.38A241.08,241.08,0,0,0,2024.8,1304a182.93,182.93,0,0,0-21.8-37.6c-3-3.93-6.47-7.55-9.73-11.31-.32-.38-.66-.75-1.28-1.46,2,.5,3.54.87,5.11,1.31a128.16,128.16,0,0,1,92,101.76,121.17,121.17,0,0,1,1.66,24.43,3.73,3.73,0,0,1-.71,2.06,160.59,160.59,0,0,1-68.19,52.26c-.24.1-.48.18-.72.26C2021.13,1435.75,2021.07,1435.71,2021.08,1435.71Z"></path>
  <path class="cls-3" d="M2088.37,1404.52c-1.47,5.11-2.75,10.28-4.46,15.3a127.88,127.88,0,0,1-78.27,78.91,127.27,127.27,0,0,1-48.52,7,2.92,2.92,0,0,1-1.61-.64,160.61,160.61,0,0,1-34.39-38.23,162.56,162.56,0,0,1-15.65-31.43c.55.45.9.68,1.2,1,11.14,10.65,24.43,17.27,39.25,21.13,8.68,2.26,17.43,2.33,26.3,1.64A178.6,178.6,0,0,0,2087,1405.13a7.8,7.8,0,0,0,.69-1Z"></path>
  <path class="cls-2" d="M2108.12,1232.85q60,60,60,144.84t-60,144.84q-60,60-144.85,60t-144.84-60q-60-60-60-144.84t60-144.84q60-60,144.84-60T2108.12,1232.85Zm-144.85-7.76q-63.29,0-107.94,44.65t-44.65,108q0,63.29,44.78,108.07t107.81,44.78q63.3,0,107.95-44.78t44.65-108.07q0-63.29-44.65-108T1963.27,1225.09Z"></path>
  <path class="cls-2" d="M2351.07,1229.84v348.48h-52V1229.84h-93.31v-51.78h238.65v51.78Z"></path>
  <path class="cls-2" d="M2550.26,1178.06v400.26h-51.78V1178.06Z"></path>
  <path class="cls-2" d="M2696.55,1178.06l129.83,224.4,129.34-224.4H3003v400.26h-51.79V1289.13l-124.83,216.14-125.33-216.14v289.19h-51.78V1178.06Z"></path>
  <path class="cls-2" d="M3312.39,1178.06v51.78H3148.54v122.33h163.85V1404H3148.54v122.32h163.85v52H3096.75V1178.06Z"></path>
  <path class="cls-3" d="M2235.43,1454.68a184.42,184.42,0,0,0-46.88-19.23q-1.83,3.77-3.81,7.46c8.49,5.44,16.77,11.28,23.93,16.28,10.71,7.48,20.77,15.66,27.59,27.09,6.67,11.16,6.6,22.47-1.57,32.54a106,106,0,0,1-19.44,18.71c-21,15.31-45,24.5-69.51,32.3-58.72,18.69-119.31,27.62-180.4,33.35-35.77,3.35-82,6.69-82,6.69l-11.37.61L1919.4,1637l-55.56,33.13c39.37-2.24,53.09-4.92,92-11.32,59.19-9.73,117.72-22.27,174.54-41.83,33.62-11.58,66.37-25.14,95.82-45.52,15.16-10.49,28.85-22.57,37.65-39.13,9.21-17.33,11.39-35,.23-52.43C2257,1468.81,2246.61,1461.17,2235.43,1454.68Z"></path>
  <path class="cls-3" d="M1833.62,1638.59,1682,1559.74l16,52.54s-133-5.24-196.74-13.23c-43.33-5.43-86.31-12.65-128.36-24.66-28.67-8.19-56.66-18.08-81.9-34.43-9.17-5.94-17.58-12.79-23.78-22-6.6-9.82-7.52-20.1-1.37-30.26a79.32,79.32,0,0,1,12-15.17,155.81,155.81,0,0,1,18.49-15.69q-3.39-6.85-6.15-14c-15.5,6.63-30.31,14.6-42.86,26.39-15.28,14.35-19.95,31.47-13.73,51.5,5.43,17.43,17.08,30.39,30.74,41.69,21.5,17.8,46.13,30.33,71.77,40.84,72.54,29.74,148.34,47.09,225.84,56.9,39.35,5,136,11.56,136,11.56l-14.83,57.36Z"></path>
</svg>